<?xml version="1.0" encoding="UTF-8" standalone="no"?>
<!DOCTYPE svg PUBLIC "-//W3C//DTD SVG 1.1//EN" "http://www.w3.org/Graphics/SVG/1.1/DTD/svg11.dtd">
<svg width="100%" height="100%" viewBox="0 0 84 46" version="1.1" xmlns="http://www.w3.org/2000/svg" xmlns:xlink="http://www.w3.org/1999/xlink" xml:space="preserve" xmlns:serif="http://www.serif.com/" style="fill-rule:evenodd;clip-rule:evenodd;stroke-linejoin:round;stroke-miterlimit:2;">
    <g transform="matrix(1,0,0,1,-182.01,-168.088)">
        <g transform="matrix(0.234399,0,0,0.234399,139.347,128.688)">
            <g transform="matrix(1,0,0,1,-88.5751,23.1065)">
                <g transform="matrix(4.29506,0,0,4.29506,-586.645,-89.0196)">
                    <path d="M233.804,68.077C233.804,68.077 239.071,70.587 245.126,71.129C251.181,71.67 258.22,81.072 269.542,80.679C280.863,80.285 280.617,76.79 280.617,76.79C280.617,76.79 280.815,76.809 281.067,76.949C282.266,78.488 281.227,80.517 280.047,81.832C279.586,82.113 279.15,82.417 278.627,82.627C278.271,82.769 277.913,82.913 277.551,83.049C275.224,83.647 272.06,83.933 268.163,83.78C259.401,83.435 252.707,76.79 244.683,76.396C236.659,76.002 229.817,75.805 233.804,68.077Z" style="fill:rgb(230,230,230);fill-rule:nonzero;"/>
                </g>
                <g transform="matrix(4.29506,0,0,4.29506,-586.645,-89.0196)">
                    <path d="M245.922,64.311C243.558,61.871 240.318,60.931 237.031,60.642C238.659,57.847 240.672,55.17 242.074,54.649C244.831,53.626 244.781,57.543 246.849,59.463C248.917,61.382 254.331,59.955 254.331,59.955C252.264,57.001 253.494,55.426 253.494,55.426C253.494,55.426 256.104,51.734 260.484,60.447C264.865,69.16 266.539,69.16 273.282,70.883C280.026,72.605 279.978,76.445 279.978,76.445C278.845,78.316 275.104,79.497 267.77,79.596C262.065,79.672 254.844,73.974 249.854,71.251C249.119,68.668 247.81,66.26 245.922,64.311Z" style="fill:rgb(157,52,15);fill-rule:nonzero;"/>
                </g>
                <g transform="matrix(4.29506,0,0,4.29506,-586.645,-89.0196)">
                    <path d="M244.952,65.184C246.411,66.688 247.504,68.494 248.225,70.442C247.469,70.114 246.791,69.901 246.209,69.849C241.828,69.455 234.296,67.24 234.296,67.24C234.256,66.321 235.115,64.17 236.331,61.897C239.487,62.093 242.685,62.848 244.952,65.184Z" style="fill:rgb(157,52,15);fill-rule:nonzero;"/>
                </g>
                <g transform="matrix(4.29506,0,0,4.29506,-586.645,-89.0196)">
                    <path d="M260.954,83.821L211.48,83.821L256.183,81.844C256.183,81.844 258.256,82.599 260.954,83.821Z" style="fill:rgb(157,52,15);fill-rule:nonzero;"/>
                </g>
                <g transform="matrix(4.29506,0,0,4.29506,-586.645,-89.0196)">
                    <path d="M254.827,81.026L205.83,81.026L250.534,79.05C250.534,79.05 252.438,80.038 254.827,81.026Z" style="fill:rgb(157,52,15);fill-rule:nonzero;"/>
                </g>
                <g transform="matrix(4.29506,0,0,4.29506,-586.645,-89.0196)">
                    <path d="M248.583,78.232L199.585,78.232L235.207,76.409C237.169,77.32 247.858,77.095 248.583,78.232Z" style="fill:rgb(157,52,15);fill-rule:nonzero;"/>
                </g>
            </g>
            <g transform="matrix(1.16974,0,0,1.16974,-42.2206,-117.832)">
                <text x="192.426px" y="396.662px" style="font-family:'Bauhaus93', 'Bauhaus 93', fantasy;font-size:56px;fill:rgb(157,52,15);">Sporty Shoes</text>
            </g>
        </g>
    </g>
</svg>
